<svg id="LOGO" xmlns="http://www.w3.org/2000/svg" viewBox="0 0 422.91 189.48"><defs><style>.cls-1{fill:#fff;}</style></defs><title>logo</title><path class="cls-1" d="M180.54,197.5H175.1v10.64h-5.52V179.88h11c5.83,0,9.32,4,9.32,8.81S186.37,197.5,180.54,197.5Zm-0.28-12.7H175.1v7.74h5.15c2.5,0,4.09-1.54,4.09-3.85A3.76,3.76,0,0,0,180.25,184.8Z" transform="translate(-8.65 -18.89)"/><path class="cls-1" d="M220.49,208.13l-1.66-5h-10l-1.71,5h-5.75l10.28-28.25h4.33l10.32,28.25h-5.75Zm-6.59-19.92-3.57,10.28h7Z" transform="translate(-8.65 -18.89)"/><path class="cls-1" d="M256.64,208.13l-5.52-11.27h-4v11.27h-5.52V179.88h11.07c5.75,0,9.17,3.93,9.17,8.65a7.6,7.6,0,0,1-5.17,7.42L263,208.13h-6.39Zm-4.28-23.33h-5.21v7.46h5.21A3.74,3.74,0,1,0,252.36,184.8Z" transform="translate(-8.65 -18.89)"/><path class="cls-1" d="M279.5,208.13V179.88H285v28.25H279.5Z" transform="translate(-8.65 -18.89)"/><path class="cls-1" d="M311.29,208.37c-4.29,0-7.55-.92-10.32-3.73l3.58-3.58a9.23,9.23,0,0,0,6.82,2.38c3.25,0,5-1.23,5-3.49a3.17,3.17,0,0,0-.87-2.39,4.22,4.22,0,0,0-2.5-1l-3.41-.48a9.66,9.66,0,0,1-5.48-2.34,7.49,7.49,0,0,1-2-5.56c0-5,3.73-8.57,9.84-8.57,3.89,0,6.71,1,9.13,3.29l-3.49,3.45a7.85,7.85,0,0,0-5.79-1.95c-2.95,0-4.37,1.63-4.37,3.57a2.74,2.74,0,0,0,.84,2,4.79,4.79,0,0,0,2.62,1.11l3.33,0.48a9.3,9.3,0,0,1,5.4,2.18,7.89,7.89,0,0,1,2.19,6C321.76,205.27,317.2,208.37,311.29,208.37Z" transform="translate(-8.65 -18.89)"/><path class="cls-1" d="M213,20.69a10,10,0,0,1,4.1,8.42V147.73a9.36,9.36,0,0,1-4.34,8.42h78c0.16-.82,2.62-13.13,3.51-17.63-7,9.93-15.1,10-34.21,10.2h-1.35c-10.08,0-20.07-.89-23.39-1.17l-0.56-.09V84.39h33.39c2.36,0,4.87,2,6.39,4v-15c-1.53,2.07-4,4-6.39,4H234.79V27.69h0.62c0.33,0,30.8.41,34.56,0.41,8.32,0,12.62,2.29,16.23,6,0-2.53-.31-12.45-0.34-13.45H213Z" transform="translate(-8.65 -18.89)"/><path class="cls-1" d="M324.79,41.14a69.21,69.21,0,0,0-19.2,47.68A66.17,66.17,0,0,0,327.86,139c13.75,12.22,32.18,19,51.9,19,10.32,0,30.53-1.74,50-13.43,0.65-8.21,1.47-19.6,1.75-24.66-15.8,30.45-40.07,30.49-48.19,30.49-40.4,0-58.51-32.22-58.51-64.12,0-16.74,5.27-31.8,14.81-42.4,10.45-11.64,25.62-17.75,43.89-17.75,9.89,0,33.76,3.12,47,30.59-0.26-5.38-1.12-17.63-1.74-26.53-17.93-7.78-32.41-11.27-46.87-11.27C358.57,18.89,338.78,26.59,324.79,41.14Z" transform="translate(-8.65 -18.89)"/><path class="cls-1" d="M146.06,29.12V70q9.41,1,18.06,2.51V29.12c0-3.81,1.22-6.56,3.68-8.42H142.33C144.79,22.61,146.06,25.44,146.06,29.12Zm46.33,70,0.17-14.82c-20.69-6.86-48.41-11-79-11.06a313.78,313.78,0,0,0-38.67,2.33V29.12a10.26,10.26,0,0,1,3.83-8.42H53.08c2.45,1.92,3.73,4.74,3.73,8.42V78.4C36.08,82.48,19.21,88.71,8.65,96.27l1.66,2.44C21.08,92.4,37.3,87.65,56.82,85v62.74A10.3,10.3,0,0,1,53,156.15H78.78a10.42,10.42,0,0,1-3.9-8.42V83.19a322.13,322.13,0,0,1,39.1,0c11.14,0.7,21.91,1.94,32.08,3.61v60.89a10.27,10.27,0,0,1-3.84,8.42h25.69a10.08,10.08,0,0,1-3.79-8.42V90.44A201.12,201.12,0,0,1,192.39,99.08Z" transform="translate(-8.65 -18.89)"/></svg>