<svg id="Layer_1" data-name="Layer 1" xmlns="http://www.w3.org/2000/svg" viewBox="0 0 177.78 177.78"><defs><style>.cls-1{fill:#005928;}.cls-1,.cls-2,.cls-3{fill-rule:evenodd;}.cls-2{fill:#fff;}.cls-3{fill:#d5622a;}</style></defs><title>roland-garros-seeklogo.com</title><path class="cls-1" d="M305.47,307.49c48.91,0,88.8,40.07,88.8,89a89,89,0,0,1-88.8,88.8c-48.91,0-89-39.89-89-88.8s40.07-89,89-89h0Z" transform="translate(-216.49 -307.49)"/><path class="cls-2" d="M305.65,310.38c47.29,0,86.09,38.8,86.09,86.27,0,47.29-38.8,86.09-86.09,86.09-47.47,0-86.27-38.8-86.27-86.09a86.5,86.5,0,0,1,86.27-86.27h0Z" transform="translate(-216.49 -307.49)"/><path class="cls-1" d="M305.47,312.18a84.29,84.29,0,1,1-84.29,84.29,84.5,84.5,0,0,1,84.29-84.29h0Z" transform="translate(-216.49 -307.49)"/><path class="cls-2" d="M305.65,343A53.52,53.52,0,1,1,252,396.65,53.57,53.57,0,0,1,305.65,343h0Z" transform="translate(-216.49 -307.49)"/><path class="cls-3" d="M305.47,344.85a51.62,51.62,0,1,1-51.62,51.62,51.72,51.72,0,0,1,51.62-51.62h0Z" transform="translate(-216.49 -307.49)"/><polygon class="cls-2" points="52.16 111.9 76.71 90.61 77.07 80.14 87.18 96.02 52.16 127.24 52.16 111.9 52.16 111.9"/><polygon class="cls-2" points="72.38 53.61 75.44 53.24 95.3 36.64 102.52 38.26 109.02 40.43 70.93 73.28 72.38 53.61 72.38 53.61"/><polygon class="cls-2" points="85.37 64.98 112.26 41.87 117.86 44.4 122.55 48.19 90.97 75.44 85.37 64.98 85.37 64.98"/><polygon class="cls-2" points="65.7 120.93 92.95 97.28 97.46 108.47 65.7 136.09 65.7 120.93 65.7 120.93"/><path class="cls-2" d="M302.58,405.31c-2.53-22.38,17.87-31.22,35.56-21.3l-0.36,6.32h-1.44l-1.44-2c-0.18-.36-0.9-3.43-8.48-3.43-7.94,0-13.9,8.48-13.9,15.16,0.18,7.22,2.7,19.49,12.45,19.49a4.15,4.15,0,0,0,3.25-1.26v-9.57c-1.09-1.08-1.63-2.17-3.25-2.53v-1.81h16.78V406c-1.62,1.08-2.34,1.62-2.34,5.23v9c-20.58,9.39-35,2-36.82-15h0Z" transform="translate(-216.49 -307.49)"/><path class="cls-3" d="M278.94,408.56V361.81h16.43c12.09,0,16.06,7.76,16.06,12.63,0,8.3-5.41,10.11-10.11,11.19L312,404.41l2,2,1.08,2.35a94,94,0,0,0-14.26,0l-10.65-21.48v11.55l-11.19,9.75h0Z" transform="translate(-216.49 -307.49)"/><path class="cls-2" d="M291.39,385.28c4.51,0,9.56-1.08,9.56-8.12,0-8.66-6.5-7.76-9.56-7.76v15.88h0Z" transform="translate(-216.49 -307.49)"/><path class="cls-2" d="M378.57,409.46h2.89a8.65,8.65,0,0,0,1.08-3.79c0.18-2.53-.72-5.23-4.33-5.77-2.53-.36-3.79,1.8-5.42,4.15s-2,3.43-3.61,3.79c-2.17.54-3.43-1.8-3.25-4.15,0.18-1.62.72-2.89,3.25-4.15l0.18-.54a17.57,17.57,0,0,0-3.07.18,7.53,7.53,0,0,0-1.8,3.61c-0.18,3.79,1.09,6.86,5.42,7,2.89,0.36,3.61-1.62,5.42-4.33,1.8-2.53,1.44-2.53,2.89-3.25,2-1.08,3.25,1.08,3.25,2.89-0.18,1.8-.72,3.25-2.89,3.79v0.54h0Z" transform="translate(-216.49 -307.49)"/><path class="cls-2" d="M364.67,388.35a10.11,10.11,0,0,0,12.82,6.5c5.23-2,6.68-6.86,4.87-12.09-2.17-5.78-7.22-8.12-12.09-6.32-5.23,1.8-7.22,7-5.59,11.91h0Zm16.42-5.23c1.63,4.69-.9,7.94-5.41,9.21-4.33,1.26-8.12.18-9.56-4.15-1.63-5.05,2.16-8.3,6.13-9.56,3.79-1.08,7.4,0,8.84,4.51h0Z" transform="translate(-216.49 -307.49)"/><path class="cls-2" d="M360.7,343.41c2,1.8,4.51,4,1.62,6.5-2,2-4.51.36-6.13-1.44l-0.36.18a92.85,92.85,0,0,0-2,11.37l1.26,1.26a7.51,7.51,0,0,1,.9,1.26c0.54,0.36.9,0,.72-0.54a2.72,2.72,0,0,1-.36-1.44l1.26-7.94q0-1.08.54-1.08c2.34,1.08,4.51,2,6.5,0,1.44-1.26,2.17-3.25-.54-6.32-1.08-1.08-2.17-2-3.07-3.07-1.08-1.08-1.26-1.44-2.16-2.35l-0.54.54a0.61,0.61,0,0,1,.36.9,3,3,0,0,1-1.26,1.44l-8.3,7.58a4.73,4.73,0,0,1-1.44,1.08,1.26,1.26,0,0,1-1.08-.18l-0.54.54a6.89,6.89,0,0,1,1.62,1.62,11.71,11.71,0,0,1,2,2.17l0.54-.54c-0.36-.36-0.72-0.9-0.36-1.26a6.24,6.24,0,0,1,1.08-1.44l9.75-8.84h0Z" transform="translate(-216.49 -307.49)"/><path class="cls-2" d="M373.33,360.73c1.26,2.35,3.07,5.23-.36,6.86-2.53,1.26-4.33-1.08-5.41-3.25H367.2a77.85,77.85,0,0,0-5.42,10.29,10.62,10.62,0,0,1,.72,1.44,4.66,4.66,0,0,1,.54,1.44c0.36,0.54.9,0.36,0.72-.36a3.39,3.39,0,0,1,.36-1.44l3.61-7c0.18-.72.36-1.08,0.72-0.9,2,1.8,3.79,3.25,6.14,2.17,1.8-.9,3.07-2.71,1.44-6.32-0.54-1.26-1.26-2.53-2-4-0.54-1.26-.72-1.62-1.26-2.89l-0.54.36a0.85,0.85,0,0,1-.18,1.08,3.16,3.16,0,0,1-1.63.9l-10.11,4.69c-0.54.36-1.8,0.54-1.8,0.72a2.4,2.4,0,0,1-.9-0.54l-0.72.36a10.81,10.81,0,0,1,1.08,2,9.38,9.38,0,0,1,1.08,2.71l0.72-.36a1.42,1.42,0,0,1,0-1.26,5.53,5.53,0,0,1,1.63-1.08l11.91-5.59h0Z" transform="translate(-216.49 -307.49)"/><path class="cls-2" d="M347.34,331.13l-0.54-.36c-1.63,1.08-3.43,2.53-4.87,3.43l-9.39,6.14a1.5,1.5,0,0,1-1.44.36,3.17,3.17,0,0,0-1.08-.18l-0.36.54c0.9,0.54,1.44.9,2.35,1.44a10.35,10.35,0,0,0,1.63.9,0.6,0.6,0,0,0,0-.9,0.86,0.86,0,0,1-.36-0.9l5.05-3.43,4.69,3.07-0.54,4.33a6.67,6.67,0,0,1-.36,1.62,2.17,2.17,0,0,1-1.08,0c-0.54-.18-0.54.18-0.72,0.54a15.78,15.78,0,0,0,2.35,1.26c0.9,0.54,1.44,1.08,2.53,1.81a0.66,0.66,0,0,0,0-1.08,2.72,2.72,0,0,1-.54-1.26c0.18-.54.18-1.44,0.36-2l2.34-15.34h0Zm-7.94,6.32,5.05-3.61-0.9,6.14-4.15-2.53h0Z" transform="translate(-216.49 -307.49)"/><path class="cls-2" d="M327.49,337.27a3.64,3.64,0,0,1-.36,1.08,7.71,7.71,0,0,1-3.43-.18c-5.23-1.08-6.86-5.05-5.41-9.93,1.08-4.33,4.33-6.68,8.84-5.42,3.43,0.9,4,2.35,4.33,4.33h0.72v-3.25c-0.72-.72-1.45-1.26-4.33-2.17-6-1.63-11.37.72-12.81,6-1.81,6.14.72,9.57,7.76,11.55a37.17,37.17,0,0,0,6.68.36l1.08-4a0.77,0.77,0,0,1,.9-0.72H332l0.18-.72a21.7,21.7,0,0,1-3.25-.9,11,11,0,0,1-2-.54l-0.18.72c0.9,0.36,1.63.54,1.26,1.62l-0.54,2.17h0Z" transform="translate(-216.49 -307.49)"/><path class="cls-2" d="M246.63,386.36a9.83,9.83,0,0,0-5.42-13c-5.23-2-9.56.72-11.55,6-2.17,5.77.18,10.83,5.05,12.63,5.24,2.17,10.11-.54,11.91-5.59h0Zm-15.88-6.5c2-4.51,5.78-5.41,10.29-3.43,4.15,1.8,6.14,5.23,4.51,9.38-2,4.87-7,4.87-10.83,3.07-3.61-1.44-5.6-4.69-4-9h0Z" transform="translate(-216.49 -307.49)"/><path class="cls-2" d="M230.39,406.39c-0.36-2.71-1.08-6,2.71-6.32,2.89-.18,3.79,2.71,4,5.05l0.36,0.18a103.71,103.71,0,0,0,8.66-7.58c0-.54-0.18-1.08-0.18-1.62v-1.63c-0.18-.72-0.72-0.54-0.72,0a2.3,2.3,0,0,1-.9,1.26l-6,5.42c-0.36.54-.72,0.72-0.9,0.36-1.26-2.35-2.35-4.33-5.05-4.15-1.8.18-3.79,1.44-3.43,5.41a34.72,34.72,0,0,0,.36,4.33v3.07h0.9a0.56,0.56,0,0,1,.36-0.9,3.88,3.88,0,0,1,1.8-.36l11.19-.72c0.72,0,1.8.18,2,.18a0.81,0.81,0,0,1,.54.72h0.72a11.13,11.13,0,0,1-.18-2.35,7.72,7.72,0,0,1,0-2.89h-0.9a1.73,1.73,0,0,1-.36,1.26,7.52,7.52,0,0,1-2,.36l-13,.9h0Z" transform="translate(-216.49 -307.49)"/><path class="cls-2" d="M249.52,343.22l-0.54.72a34.9,34.9,0,0,1,2.35,5.41l4.15,10.29a2.5,2.5,0,0,1,0,1.62,2.56,2.56,0,0,0-.36,1.08l0.54,0.36c0.72-.72,1.08-1.26,1.81-2l1.26-1.26c-0.18-.36-0.54-0.72-0.9-0.36a0.61,0.61,0,0,1-.9.18l-2.35-5.59,4-4,4,1.44a2.69,2.69,0,0,1,1.62.72,1.36,1.36,0,0,1-.18.9c-0.36.54,0,.72,0.36,0.9,0.9-.9,1.08-1.44,1.62-2a25.18,25.18,0,0,0,2.35-2.17,0.6,0.6,0,0,0-1.08-.18,2.68,2.68,0,0,1-1.27.18,7.59,7.59,0,0,1-1.8-.72l-14.62-5.6h0Zm4.51,9.38-2.35-5.78,5.78,2.17L254,352.61h0Z" transform="translate(-216.49 -307.49)"/><path class="cls-2" d="M287.06,336.73a2.83,2.83,0,0,1,.18,1.63l-0.72.54,0.18,0.72,3.25-1.08a14.45,14.45,0,0,0,3.25-.72,13.26,13.26,0,0,0,5.05-2.17,9.48,9.48,0,0,0,3.25-10.11c-1.26-4.69-5.23-7-10.65-5.42-0.9.36-2.89,1.08-4.51,1.63l-4,.9,0.18,0.72a1.07,1.07,0,0,1,1.26.18c0,0.18.18,0.9,0.36,1.81l2.89,11.37h0Zm-0.54-12.63c0-1.08,1.62-1.8,2.35-2,4.15-1.08,8.3-1.08,9.75,4.87,0.9,3.25.36,6.32-2,8.12a12.28,12.28,0,0,1-4,1.62c-0.72.18-2.35,0.54-3.07-.54l-3.07-12.09h0Z" transform="translate(-216.49 -307.49)"/><path class="cls-2" d="M269.55,345a4.63,4.63,0,0,0,.72,1.62,2.65,2.65,0,0,1-.9,1.08l0.36,0.72c0.72-.36.72-0.54,1.44-0.9,0.9-.54,1.44-0.72,2.34-1.26l-0.36-.72a2.72,2.72,0,0,1-1.44.36,15.7,15.7,0,0,1-1.26-1.44l-5.23-9.21,15.88,5.23a8.65,8.65,0,0,0,.9.36c1.26,0.54,1.08-.36.54-1.08L276,328.24a6.65,6.65,0,0,1-.72-1.62c-0.18-.36.54-0.9,1.08-1.26l-0.36-.54c-0.9.54-1.26,0.72-2,1.08a19.9,19.9,0,0,1-2,1.08l0.36,0.72c0.54-.36,1.44-0.72,1.62-0.36a14.29,14.29,0,0,0,1.08,1.44l4.51,7.94L264,331.67c-0.36.18-.9,0.54-1.26,0.72-0.72.54-1.62,0.9-2.53,1.44l0.36,0.54c0.54-.18,1.62-0.72,2.16-0.18a2.27,2.27,0,0,1,1.26,1.08l5.6,9.75h0Z" transform="translate(-216.49 -307.49)"/><path class="cls-2" d="M238.87,363.8a6.71,6.71,0,0,1-1.62-1.08,1.58,1.58,0,0,1,.18-1.26l-0.72-.36c-0.54,1.08-.72,1.62-1.27,2.53-0.54,1.26-.54,1.08-1.08,2.35l0.72,0.18c0.18-.54.18-0.54,0.9-0.54,0.18-.18.9,0.18,1.62,0.54l10.65,5.23c0.54,0.18,1.26.9,1.08,1.08v0.9l0.72,0.36a18,18,0,0,1,.9-2c0.72-1.44,1.26-2.89,2.35-4.87,0.9-1.44,1.08-2,.72-2.71-0.54-1.08-.9-2-1.62-3.25-0.54,0-.72.72-0.36,1.44,0.72,1.44.36,3.79-.54,5.59a1.75,1.75,0,0,1-2.53.9l-10.11-5.05h0Z" transform="translate(-216.49 -307.49)"/><path class="cls-2" d="M305.11,460.72V464a0.18,0.18,0,0,0,.18.18h0.54c1.26,0,1.81-.36,1.81-1.8a2.81,2.81,0,0,0-.36-1.44,2.21,2.21,0,0,0-1.62-.54c-0.18,0-.36,0-0.36.18a0.18,0.18,0,0,0-.18.18h0ZM303.66,467v-6.32a0.68,0.68,0,0,0-.36-0.36l-0.18-.18h-0.54v-0.36h3.79a3.85,3.85,0,0,1,2.17.54,1.76,1.76,0,0,1,.72,1.62,2.62,2.62,0,0,1-.36,1.26,5.63,5.63,0,0,1-1.62,1.26l0.9,1.8a14.07,14.07,0,0,0,1.08,1.44c0.54,0.54,1.81,1.26,1.44,1.26-1.63.18-2.17-.72-3.07-1.44-0.9-1.08-2.17-2.71-2.17-2.71a2,2,0,0,0-.18.9v2.17l0.36,0.36c0.18,0,.54.18,0.72,0.18h0.18a0.18,0.18,0,0,0,.18.18l-0.18.18h-0.72c-0.36,0-.72-0.18-1.08-0.18-0.54,0-1.44.18-1.8,0.18h-0.36v-0.18a0.18,0.18,0,0,1,.18-0.18h0.36a0.18,0.18,0,0,1,.18-0.18l0.36-.36V467h0Z" transform="translate(-216.49 -307.49)"/><path class="cls-2" d="M264.5,446.64l-2,2.35-0.18.18,0.36,0.36,0.18,0.18a1.53,1.53,0,0,0,2.53-.18,1.49,1.49,0,0,0,.54-1.44,1.57,1.57,0,0,0-.72-1.26c0-.18-0.18-0.18-0.36-0.18,0-.18-0.18,0-0.36,0h0Zm-5.23,3.61,3.79-4a2.59,2.59,0,0,0,.36-0.72c0.18,0,.18-0.36.18-0.36a0.56,0.56,0,0,0-.18-0.36,0.18,0.18,0,0,0-.18-0.18V444.3h0.36a0.51,0.51,0,0,0,.36.36,2.48,2.48,0,0,0,.54.72,1.34,1.34,0,0,1,.54.54,3.76,3.76,0,0,0,1.08.72,8.79,8.79,0,0,1,1.26,2,3.48,3.48,0,0,1-.54,1.8,2.77,2.77,0,0,1-1.27.9c-1.8.54-2.53-.54-3.61-1.44a2.49,2.49,0,0,0-.72.54l-0.9.9a7.38,7.38,0,0,1-.54.72v0.54a1.41,1.41,0,0,1,.36.54,0.18,0.18,0,0,1,.18.18v0.18c0,0.18-.18,0-0.18,0H260a2.58,2.58,0,0,0-.36-0.54,2.73,2.73,0,0,1-.72-0.72,7.46,7.46,0,0,0-1.45-1.08l-0.18-.18v-0.18c0-.18.18-0.18,0.36-0.18v0.18a0.18,0.18,0,0,1,.18.18,0.63,0.63,0,0,0,.36-0.18h0.36a1.41,1.41,0,0,0,.72-0.54h0Z" transform="translate(-216.49 -307.49)"/><path class="cls-2" d="M349.51,452.24v-0.18h0.18l0.18,0.18a2.49,2.49,0,0,1,.72.54,2.21,2.21,0,0,0,1.63-.72,1.92,1.92,0,0,0,.72-1.08,3.06,3.06,0,0,0-.54-1.08,2.51,2.51,0,0,1-.72-0.54c-0.18,0-.72-0.18-0.9-0.18s-0.72.18-.9,0.18H349c-1.09,0-1.81.36-2.71-.72a3.46,3.46,0,0,1-.72-2.17,4.67,4.67,0,0,1,1.26-1.81c0.18-.18.54-0.36,0.72-0.54a1.62,1.62,0,0,1,.9-0.18v0.18l0.9,1.08h0.18l-0.36.36-0.36-.18a1.09,1.09,0,0,0-1.81,0,1.28,1.28,0,0,0-.18,2,1.73,1.73,0,0,0,1.62.36h0.9a5,5,0,0,1,2.34,0,4.52,4.52,0,0,1,1.27.72,2.58,2.58,0,0,1,.72,1.8,1.38,1.38,0,0,1-.18.72,1.9,1.9,0,0,1-.36.9,4.09,4.09,0,0,0-.54.9,3,3,0,0,1-.9.36l-0.54.36-0.54.18s-0.18.18-.18,0l-0.9-1.08-0.18-.18,0.18-.18h0Z" transform="translate(-216.49 -307.49)"/><path class="cls-2" d="M325.32,456.75v-0.18l0.9-.36,1.08-.36,1.26-.36,0.72-.36h0.36v0.36h-0.18l-0.36.18a2.44,2.44,0,0,0-.72.54v0.54l0.18,0.36,2.17,5.59a1.28,1.28,0,0,0,.36.72,1.09,1.09,0,0,0,1.09,0l0.18-.18c0.18,0,.36,0,0.36.18h0.18l-0.18.18a0.18,0.18,0,0,1-.18.18,1.86,1.86,0,0,1-.72.18,8.89,8.89,0,0,1-1.26.54,2.57,2.57,0,0,1-1.08.36l-0.72.36h-0.18l-0.18-.18a0.36,0.36,0,0,1,.18-0.36h0.36c0.54-.36.9-0.54,0.72-1.08l-0.18-.54-2.17-5.42a0.36,0.36,0,0,0-.18-0.36,0.6,0.6,0,0,0-.36-0.54,1.37,1.37,0,0,0-.72.18h-0.36l-0.18.18a0.18,0.18,0,0,1-.18-0.18v-0.18h0Z" transform="translate(-216.49 -307.49)"/><path class="cls-2" d="M280.92,460.36l2,0.72v-2.71l-2,2h0Zm3.43-4.33v0.36l0.18,8.12v0.72a1.23,1.23,0,0,0,.54.9h0.36v0.18l-0.18.18v0.18h-0.18a2.26,2.26,0,0,0-.54-0.36,0.66,0.66,0,0,1-.54-0.18c-0.36-.18-1.44-0.54-1.81-0.72a4.1,4.1,0,0,1-.72-0.18v-0.54h0.18c0.54,0.18.9,0.18,0.9,0l0.18-.18V462l-2.17-.9-1.26,1.26-0.18.36c-0.18,0-.18.36-0.36,0.36a0.6,0.6,0,0,0,.54.72l0.18,0.18a0.18,0.18,0,0,1,.18.18v0.18H279.3l-0.72-.36-0.72-.18-0.72-.36-0.54-.18h-0.18v-0.18l0.18-.18v-0.18l0.18,0.18a1.48,1.48,0,0,0,1.26-.18l0.36-.36,0.18-.36,5.78-6h0Z" transform="translate(-216.49 -307.49)"/></svg>